<svg version="1.2" xmlns="http://www.w3.org/2000/svg" viewBox="0 0 1024 1024" width="1024" height="1024"><style>.s0{fill:#b31500}.s1{fill:#ff5500}</style><path class="s0" d="m911 247c0.7 0 1.1 74.5 1.2 226.8c0.2 124.8 0.2 227.5 0 228.3c-0.2 0.8-2.9 3-6 5.1c-3.1 2-13.1 8.7-22.2 14.9c-9.1 6.2-22.8 15.5-30.5 20.8c-7.7 5.2-25.7 17.3-40 26.9c-14.3 9.7-28.9 19.6-32.5 22c-3.6 2.5-19.3 13.2-35 23.7c-15.7 10.5-31 20.9-34 23c-3 2.1-16.5 11.3-30 20.3c-13.5 9.1-30.6 20.6-38 25.7c-7.4 5-16.4 11.2-20 13.7c-3.6 2.5-14.4 9.8-24 16.3c-9.6 6.5-19 12.4-24 14.5l1-3.3c0.5-1.7 5.5-12.4 11.1-23.7c5.6-11.3 17.8-36 27.1-55c9.4-19 22.4-45.5 29-59c6.6-13.5 18.6-37.8 26.5-54c8-16.2 20.9-42.3 28.5-58c7.7-15.7 20.6-41.8 28.5-58c8-16.2 20.5-41.6 27.8-56.5c7.3-14.9 19.1-38.9 26.3-53.5c7.1-14.6 18.4-37.5 25-51c6.6-13.5 20.2-41.1 30.2-61.5c10-20.4 23.5-47.8 30-61c6.5-13.2 18.8-38.3 27.4-55.8c8.5-17.4 16-31.7 16.6-31.7z" /><path class="s1" d="m112.3 245c0.6-0.1 2.8 3.2 4.9 7.2c2 4 9.8 19.9 17.3 35.3c7.6 15.4 19.5 39.7 26.5 54c7 14.3 20.3 41.3 29.5 60c9.2 18.7 22.5 45.7 29.5 60c7 14.3 18.8 38.4 26.3 53.5c7.4 15.1 20.4 41.7 28.9 59c8.6 17.3 21.3 43.2 28.3 57.5c7 14.3 19.7 40.2 28.3 57.5c8.5 17.3 21 42.8 27.7 56.5c6.7 13.8 17.9 36.5 24.8 50.5c6.8 14 21.1 43 31.7 64.5c10.5 21.5 21.6 44 24.6 50c2.9 6 5.8 12.5 6.4 14.3c0.9 3 0.9 3.2-1.3 2.6c-1.2-0.3-4.9-2.4-8.2-4.7c-3.3-2.2-13-8.8-21.5-14.5c-8.5-5.8-21.1-14.4-28-19.1c-6.9-4.7-19.2-13-27.3-18.6c-8.1-5.5-16.6-11.1-18.7-12.5c-2.1-1.4-5.9-3.9-8.5-5.5c-2.5-1.6-6.5-4.4-8.8-6.1c-2.3-1.7-17.9-12.3-34.7-23.6c-16.8-11.3-34.3-23.1-39-26.3c-4.7-3.2-19.3-13.1-32.5-22c-13.2-8.9-31-20.9-39.5-26.7c-8.5-5.8-20.2-13.8-26-17.7c-5.8-4-17.6-11.9-42-28.1v-228.5c0-182.1 0.3-228.5 1.3-228.5z" /><path class="s0" d="m512 928v-833l214 416.5z" /><path class="s1" d="m298 510.5l214-416.5v833z" /></svg>